<svg width="32" height="32" viewBox="0 0 32 32" fill="none" xmlns="http://www.w3.org/2000/svg">
<g clip-path="url(#clip0_106_106)">
<path d="M0 0H32V32H0V0Z" fill="#FFBD59"/>
<path d="M11.3355 17.4955C11.6478 16.8422 11.6133 15.9911 11.2378 15.0989C10.5744 13.5211 9.4311 12.62 8.45888 12.9066C7.48777 13.1933 7.0911 14.5233 7.47221 16.2155C7.67777 17.13 8.1511 17.8433 8.80555 18.2233C9.11888 18.4055 9.45443 18.4989 9.78221 18.4989C9.94443 18.4989 10.1044 18.4766 10.2589 18.43C10.7311 18.2911 11.1133 17.9589 11.3355 17.4955Z" fill="black"/>
<path d="M11.9211 13.5111C12.31 13.8656 12.78 14.0556 13.2578 14.0556C13.3089 14.0556 13.36 14.0533 13.41 14.0489C13.9433 14.0044 14.4267 13.7344 14.7722 13.29C15.2545 12.6689 15.42 11.7644 15.2389 10.7444C14.9156 8.93111 13.9256 7.73 12.83 7.82222C11.7389 7.91445 11.0033 9.23334 11 11.1022C10.9978 12.1122 11.3245 12.9667 11.9211 13.5111Z" fill="black"/>
<path d="M23.6 12.9066C22.6278 12.62 21.4845 13.5211 20.8211 15.0989C20.4456 15.9911 20.4111 16.8422 20.7233 17.4955C20.9456 17.9589 21.3278 18.2911 21.8 18.43C21.9545 18.4766 22.1145 18.4989 22.2767 18.4989C22.6045 18.4989 22.94 18.4055 23.2533 18.2233C23.9067 17.8433 24.3811 17.13 24.5867 16.2155C24.9678 14.5233 24.5711 13.1933 23.6 12.9066Z" fill="black"/>
<path d="M18.6489 14.0489C18.6989 14.0533 18.75 14.0556 18.8 14.0556C19.2789 14.0556 19.7489 13.8656 20.1378 13.5111C20.7345 12.9667 21.0611 12.1122 21.0589 11.1022C21.0556 9.23334 20.32 7.91445 19.2289 7.82222C18.1345 7.73 17.1433 8.93111 16.82 10.7444C16.6389 11.7644 16.8045 12.6689 17.2867 13.29C17.6322 13.7344 18.1156 14.0044 18.6489 14.0489Z" fill="black"/>
<path d="M20.16 18.9389C18.8678 17.9945 18.34 16.5489 18.3344 16.5345L18.3322 16.5278C17.6067 14.76 16.2856 14.6889 16.0322 14.6933C15.7744 14.6889 14.4533 14.76 13.7267 16.53C13.7211 16.5456 13.1 18.0933 11.9011 18.9378C10.9278 19.6222 10.0733 20.92 10.5944 22.5067C10.61 22.5589 10.7778 23.1056 11.2689 23.5711C12.1156 24.3711 13.23 24.2867 14.0156 24.0733L14.02 24.0722C14.0278 24.07 14.7911 23.8311 15.4667 23.6622C15.8356 23.5689 16.2244 23.5689 16.5933 23.6622C17.2689 23.8311 18.0322 24.07 18.0389 24.0722L18.0444 24.0733C18.4256 24.1767 18.7667 24.22 19.07 24.22C19.8989 24.22 20.4489 23.8945 20.7911 23.5711C21.2822 23.1056 21.45 22.5589 21.4656 22.5067C22.1078 20.55 20.6289 19.2811 20.16 18.9389Z" fill="black"/>
</g>
<defs>
<clipPath id="clip0_106_106">
<rect width="32" height="32" rx="7" fill="white"/>
</clipPath>
</defs>
</svg>
